<svg width="16" height="16" viewBox="0 0 16 16" fill="none" xmlns="http://www.w3.org/2000/svg">
<path d="M12.228 1C10.8715 1 9.76878 2.09772 9.76878 3.45422C9.76878 3.52922 9.77718 3.60453 9.78368 3.67773L5.04908 6.09229C4.61998 5.72559 4.06297 5.50598 3.45438 5.50598C2.09788 5.50598 1.00018 6.60373 1.00018 7.96033C1.00018 9.31683 2.09788 10.4144 3.45438 10.4144C4.00045 10.4144 4.50718 10.239 4.91498 9.9375L9.77868 12.4116C9.77628 12.4556 9.76878 12.5006 9.76878 12.5458C9.76878 13.9023 10.8715 15 12.228 15C13.5845 15 14.6822 13.9023 14.6822 12.5458C14.6822 11.1893 13.5845 10.0865 12.228 10.0865C11.5915 10.0865 11.01 10.3302 10.5736 10.7274L5.87828 8.32751C5.8972 8.20471 5.91306 8.07805 5.91306 7.94995C5.91306 7.87795 5.90416 7.80633 5.89816 7.73633L10.6377 5.32178C11.0657 5.68448 11.6225 5.90308 12.2275 5.90308C13.584 5.90308 14.6817 4.80035 14.6817 3.44385C14.6817 2.08735 13.584 0.989624 12.2275 0.989624L12.228 1Z" fill="white"/>
</svg>
